<?xml version="1.0" encoding="UTF-8" standalone="no"?>
<svg
   xmlns:dc="http://purl.org/dc/elements/1.1/"
   xmlns:cc="http://creativecommons.org/ns#"
   xmlns:rdf="http://www.w3.org/1999/02/22-rdf-syntax-ns#"
   xmlns:svg="http://www.w3.org/2000/svg"
   xmlns="http://www.w3.org/2000/svg"
   viewBox="0 0 3779.5332 3779.5332"
   height="3779.5332"
   width="3779.5332"
   xml:space="preserve"
   id="svg2"
   version="1.1"><metadata
     id="metadata8"><rdf:RDF><cc:Work
         rdf:about=""><dc:format>image/svg+xml</dc:format><dc:type
           rdf:resource="http://purl.org/dc/dcmitype/StillImage" /></cc:Work></rdf:RDF></metadata><defs
     id="defs6"><clipPath
       id="clipPath18"
       clipPathUnits="userSpaceOnUse"><path
         id="path16"
         d="M 0,2834.646 H 2834.646 V 0 H 0 Z" /></clipPath></defs><g
     transform="matrix(1.3333333,0,0,-1.3333333,0,3779.5333)"
     id="g10"><g
       id="g12"><g
         clip-path="url(#clipPath18)"
         id="g14"><g
           transform="translate(720.5352,1236.2854)"
           id="g20"><path
             id="path22"
             style="fill:#20211f;fill-opacity:1;fill-rule:nonzero;stroke:none"
             d="m 0,0 c -0.047,0.763 -0.109,1.542 -0.203,2.321 0.063,0 0.109,-0.016 0.172,-0.031 z" /></g><g
           transform="translate(720.5352,1236.2854)"
           id="g24"><path
             id="path26"
             style="fill:#20211f;fill-opacity:1;fill-rule:nonzero;stroke:none"
             d="m 0,0 c -0.047,0.763 -0.109,1.542 -0.203,2.321 -0.015,0.109 -0.03,0.218 -0.046,0.343 0.124,0.358 0.202,0.747 0.202,1.184 L -0.031,2.29 Z" /></g><g
           transform="translate(783.0679,1553.8331)"
           id="g28"><path
             id="path30"
             style="fill:#ffffff;fill-opacity:1;fill-rule:nonzero;stroke:none"
             d="m 0,0 -15.622,-22.349 c 0,0 -3.419,-22.215 -3.022,-23.802 0.396,-1.587 0.093,-3.57 3.022,-15.471 2.928,-11.9 8.878,-25.784 10.465,-30.545 1.587,-4.76 0.793,-21.024 5.157,-23.008 4.364,-1.983 11.107,-1.983 15.074,0 3.967,1.984 20.628,15.868 20.628,15.868 l 7.934,25.388 c 0,0 1.983,27.768 1.587,32.132 -0.397,4.363 -2.777,22.611 -5.951,26.975 C 36.099,-10.449 31.735,-2.642 26.182,0 20.628,2.642 17.326,3.158 9.521,3.832 1.716,4.507 0,0 0,0" /></g><g
           transform="translate(1060.2704,1372.7893)"
           id="g32"><path
             id="path34"
             style="fill:#11100d;fill-opacity:1;fill-rule:nonzero;stroke:none"
             d="m 0,0 c -21.021,0 -38.063,17.042 -38.063,38.063 0,20.994 17.042,38.035 38.063,38.035 20.994,0 38.036,-17.041 38.036,-38.035 C 38.036,17.042 20.994,0 0,0 m 204.973,62.021 c -7.147,61.236 -44.871,121.498 -108.178,136.035 -56.296,12.927 -117.004,13.076 -166.383,-19.979 -46.658,-31.24 -76.653,-83.205 -85.086,-138.241 -16.121,-105.322 46.78,-202.334 140.502,-216.682 46.847,-7.16 92.544,7.689 128.523,37.495 11.302,9.367 21.643,20.195 30.767,32.296 0,0 -1.868,-53.751 15.62,-61.493 24.256,-10.734 44.235,4.345 44.235,4.345 0,0 9.285,146.593 0,226.224" /></g><g
           transform="translate(2402.28,1577.8457)"
           id="g36"><path
             id="path38"
             style="fill:#11100d;fill-opacity:1;fill-rule:nonzero;stroke:none"
             d="m 0,0 c 0,0 -0.01,0.01 -0.01,0 -87.97,5.29 -168.63,-65.91 -183.86,-165.44 -16.05,-104.83 46.56,-201.4 139.84,-215.66 46.63,-7.14 92.11,7.64 127.92,37.32 11.25,9.32 21.54,20.1 30.62,32.13 0,0 -1.85,-53.49 15.55,-61.2 24.14,-10.68 44.02,4.32 44.02,4.32 0,0 9.25,145.92 0,225.17 -1.39,11.95 -3.54,22.7 -6.26,32.39 z m -29.929,-205.083 c -20.926,0 -37.886,16.96 -37.886,37.873 0,20.899 16.96,37.859 37.886,37.859 20.9,0 37.86,-16.96 37.86,-37.859 0,-20.913 -16.96,-37.873 -37.86,-37.873" /></g><g
           transform="translate(1728.2297,1479.8595)"
           id="g40"><path
             id="path42"
             style="fill:#11100d;fill-opacity:1;fill-rule:nonzero;stroke:none"
             d="m 0,0 c 0,-155.862 -88.211,-282.205 -197.026,-282.205 -108.815,0 -197.04,126.343 -197.04,282.205 0,33.119 3.987,64.902 11.303,94.428 2.994,12.087 13.912,20.525 26.365,20.525 h 64.038 c 7.26,-0.159 21.075,-69.49 23.073,-77.015 9.393,-35.37 30.216,-72.844 72.261,-72.844 36.967,0 58.089,28.65 69.128,60.736 2.685,7.802 18.255,78.793 21.475,88.699 0.224,0.688 0.866,1.147 1.59,1.155 l 72.631,0.835 c 14.824,0 21.962,-5.459 25.765,-19.787 C 1.831,65.589 0,35.286 0,0" /></g><g
           transform="translate(1940.9377,1373.2089)"
           id="g44"><path
             id="path46"
             style="fill:#11100d;fill-opacity:1;fill-rule:nonzero;stroke:none"
             d="m 0,0 c -20.913,0 -37.873,16.96 -37.873,37.873 0,20.913 16.96,37.86 37.873,37.86 20.913,0 37.873,-16.947 37.873,-37.86 C 37.873,16.96 20.913,0 0,0 m 204.175,61.723 c -1.232,28.656 -2.748,57.284 -4.305,85.885 -2.423,44.709 -4.67,89.404 -7.891,134.072 -0.88,12.115 -1.219,24.202 -1.814,36.683 -0.609,12.804 -1.476,26.002 -3.438,39.998 -6.998,7.702 -17.57,12.615 -29.414,12.615 -12.628,0 -23.823,-5.576 -30.767,-14.185 1.043,-15.039 1.083,-28.926 0.366,-41.718 -3.858,-69.75 -29.982,-106.608 -38.252,-116.584 -22.659,4.061 -44.655,5.103 -44.655,5.103 -93.302,14.281 -181.894,-59.138 -197.948,-163.946 -16.04,-104.834 46.577,-201.386 139.852,-215.666 46.631,-7.12 92.098,7.661 127.927,37.318 11.248,9.327 21.536,20.101 30.605,32.134 0,0 -1.841,-53.493 15.552,-61.195 24.148,-10.68 44.032,4.318 44.032,4.318 4.752,75.015 3.384,150.139 0.15,225.168" /></g><g
           transform="translate(816.9775,1476.3247)"
           id="g48"><path
             id="path50"
             style="fill:#11100d;fill-opacity:1;fill-rule:nonzero;stroke:none"
             d="m 0,0 c -0.054,-0.176 -0.095,-0.365 -0.135,-0.555 -0.785,-2.044 -1.733,-4.02 -2.897,-5.888 -4.656,-7.648 -17.218,-17.218 -26.449,-16.839 -0.379,0.014 -1.475,0.095 -2.856,0.244 l 0.027,-2.206 c -0.041,0.744 -0.095,1.489 -0.19,2.247 -0.054,0 -0.121,0.013 -0.175,0.013 0.054,0.095 0.094,0.203 0.135,0.312 -1.746,13.698 -11.14,27.775 -15.147,40.404 -4.223,13.197 -4.263,27.64 0.596,40.675 C -42.8,69.94 -33.312,82 -19.749,81.174 -6.037,80.349 -0.731,63.266 1.976,52.221 5.861,36.33 5.225,15.485 0,0 m 10.192,49.703 c -1.461,7.689 -3.898,15.31 -7.417,22.308 -3.289,6.564 -8.189,12.453 -15.201,15.173 -7.011,2.694 -15.052,1.652 -21.671,-1.624 -6.646,-3.276 -11.884,-9.083 -15.62,-15.35 -7.918,-13.319 -10.03,-29.427 -7.58,-44.573 1.381,-8.541 4.494,-16.514 8.541,-24.121 3.804,-7.16 7.066,-14.998 7.526,-23.322 -0.068,-1.381 -0.176,-2.748 -0.298,-4.129 -2.572,-25.799 -10.991,-45.764 -25.041,-67.449 -4.345,-6.727 -9.029,-13.224 -14.023,-19.478 -5.008,-6.24 -10.315,-12.25 -15.918,-17.975 -5.604,-5.739 -11.506,-11.194 -17.651,-16.365 -6.186,-5.184 -12.615,-10.071 -19.275,-14.619 -6.7,-4.575 -13.617,-8.825 -20.723,-12.723 -7.174,-3.926 -14.538,-7.499 -22.077,-10.707 -7.608,-3.235 -15.377,-6.105 -23.255,-8.555 -8,-2.49 -16.121,-4.602 -24.337,-6.28 -8.338,-1.706 -16.771,-3.005 -25.231,-3.858 -8.622,-0.866 -17.258,-1.3 -25.908,-1.3 -135.723,0 -245.756,106.622 -245.756,238.123 0,80.132 40.838,151.019 103.441,194.184 0,0 0.067,0.041 0.176,0.109 0.081,0.067 0.176,0.135 0.311,0.216 0.081,0.068 0.176,0.136 0.284,0.203 0.745,0.542 2.031,1.408 3.723,2.504 0.528,0.339 1.11,0.718 1.705,1.11 12.345,7.729 39.985,22.646 54.198,11.005 18.652,-15.255 10.165,-28.804 28.804,-38.983 18.652,-10.179 38.699,-6.159 53.114,8.473 10.504,10.68 18.666,32.594 9.34,59.152 -2.694,7.634 -7.58,11.708 -16.662,21.765 -32.338,35.83 -76.478,39.132 -116.557,40.608 -31.255,1.15 -60.154,-8.406 -86.846,-23.025 -9.083,-4.967 -17.908,-10.53 -26.476,-16.459 -0.542,-0.366 -1.083,-0.745 -1.625,-1.124 -0.027,-0.027 -0.067,-0.054 -0.108,-0.081 -23.864,-18.084 -44.492,-37.562 -47.348,-40.269 -0.041,-0.054 -0.081,-0.081 -0.122,-0.122 -0.081,-0.067 -0.135,-0.135 -0.163,-0.162 -0.04,-0.027 -0.054,-0.041 -0.054,-0.041 -55.51,-57.256 -89.498,-134.302 -89.498,-219.063 0,-176.738 147.865,-320.001 330.274,-320.001 171.999,0 313.286,127.386 328.825,290.127 3.777,14.592 4.819,32.824 2.179,46.698" /></g><g
           transform="translate(2391.8984,1566.9685)"
           id="g52"><path
             id="path54"
             style="fill:#ffffff;fill-opacity:1;fill-rule:nonzero;stroke:none"
             d="m 0,0 c 5.446,7.936 15.512,14.913 22.916,20.825 23.347,18.647 51.647,25.403 80.535,16.312 17.466,-5.497 34.691,-13.87 49.765,-24.244 32.855,-22.61 48.387,-76.134 26.585,-110.599 -7.818,-12.359 -22.616,-24.625 -38.095,-23.57 -16.15,1.102 -32.091,14.289 -42.329,25.883 -11.646,13.19 -5.985,18.262 -30.699,20.929 -20.072,2.166 -44.437,-4.97 -60.373,11.655 C -7.312,-46.517 -13.295,-19.374 0,0" /></g><g
           transform="translate(2391.8984,1566.9685)"
           id="g56"><path
             id="path58"
             style="fill:none;stroke:#070707;stroke-width:8;stroke-linecap:butt;stroke-linejoin:miter;stroke-miterlimit:10;stroke-dasharray:none;stroke-opacity:1"
             d="m 0,0 c 5.446,7.936 15.512,14.913 22.916,20.825 23.347,18.647 51.647,25.403 80.535,16.312 17.466,-5.497 34.691,-13.87 49.765,-24.244 32.855,-22.61 48.387,-76.134 26.585,-110.599 -7.818,-12.359 -22.616,-24.625 -38.095,-23.57 -16.15,1.102 -32.091,14.289 -42.329,25.883 -11.646,13.19 -5.985,18.262 -30.699,20.929 -20.072,2.166 -44.437,-4.97 -60.373,11.655 C -7.312,-46.517 -13.295,-19.374 0,0 Z" /></g><g
           transform="translate(2419.3188,1652.2667)"
           id="g60"><path
             id="path62"
             style="fill:#ffffff;fill-opacity:1;fill-rule:nonzero;stroke:none"
             d="m 0,0 c 6.47,-17.057 1.854,-34.625 -10.311,-39.239 -12.165,-4.614 -27.271,5.472 -33.741,22.528 -6.47,17.057 -1.854,34.625 10.311,39.239 C -21.576,27.143 -6.47,17.057 0,0" /></g><g
           transform="translate(2419.3188,1652.2667)"
           id="g64"><path
             id="path66"
             style="fill:none;stroke:#070707;stroke-width:8;stroke-linecap:butt;stroke-linejoin:miter;stroke-miterlimit:10;stroke-dasharray:none;stroke-opacity:1"
             d="m 0,0 c 6.47,-17.057 1.854,-34.625 -10.311,-39.239 -12.165,-4.614 -27.271,5.472 -33.741,22.528 -6.47,17.057 -1.854,34.625 10.311,39.239 C -21.576,27.143 -6.47,17.057 0,0 Z" /></g><g
           transform="translate(2625.7712,1537.7371)"
           id="g68"><path
             id="path70"
             style="fill:#ffffff;fill-opacity:1;fill-rule:nonzero;stroke:none"
             d="m 0,0 c 18.029,4.26 35.25,-3.312 38.463,-16.912 3.214,-13.601 -8.797,-28.079 -26.827,-32.339 -18.029,-4.259 -35.25,3.312 -38.463,16.912 C -30.04,-18.738 -18.029,-4.26 0,0" /></g><g
           transform="translate(2625.7712,1537.7371)"
           id="g72"><path
             id="path74"
             style="fill:none;stroke:#070707;stroke-width:8;stroke-linecap:butt;stroke-linejoin:miter;stroke-miterlimit:10;stroke-dasharray:none;stroke-opacity:1"
             d="m 0,0 c 18.029,4.26 35.25,-3.312 38.463,-16.912 3.214,-13.601 -8.797,-28.079 -26.827,-32.339 -18.029,-4.259 -35.25,3.312 -38.463,16.912 C -30.04,-18.738 -18.029,-4.26 0,0 Z" /></g><g
           transform="translate(2600.2183,1609.7296)"
           id="g76"><path
             id="path78"
             style="fill:#ffffff;fill-opacity:1;fill-rule:nonzero;stroke:none"
             d="M 0,0 C 19.962,8.821 40.723,5.61 46.371,-7.172 52.02,-19.954 40.417,-37.467 20.455,-46.288 0.493,-55.11 -20.268,-51.899 -25.916,-39.116 -31.565,-26.334 -19.962,-8.821 0,0" /></g><g
           transform="translate(2600.2183,1609.7296)"
           id="g80"><path
             id="path82"
             style="fill:none;stroke:#070707;stroke-width:8;stroke-linecap:butt;stroke-linejoin:miter;stroke-miterlimit:10;stroke-dasharray:none;stroke-opacity:1"
             d="M 0,0 C 19.962,8.821 40.723,5.61 46.371,-7.172 52.02,-19.954 40.417,-37.467 20.455,-46.288 0.493,-55.11 -20.268,-51.899 -25.916,-39.116 -31.565,-26.334 -19.962,-8.821 0,0 Z" /></g><g
           transform="translate(2535.6614,1669.6179)"
           id="g84"><path
             id="path86"
             style="fill:#ffffff;fill-opacity:1;fill-rule:nonzero;stroke:none"
             d="M 0,0 C 14.87,20.347 37.935,28.796 51.517,18.87 65.099,8.944 64.055,-15.597 49.185,-35.944 34.316,-56.292 11.251,-64.74 -2.331,-54.814 -15.914,-44.888 -14.87,-20.347 0,0" /></g><g
           transform="translate(2535.6614,1669.6179)"
           id="g88"><path
             id="path90"
             style="fill:none;stroke:#070707;stroke-width:8;stroke-linecap:butt;stroke-linejoin:miter;stroke-miterlimit:10;stroke-dasharray:none;stroke-opacity:1"
             d="M 0,0 C 14.87,20.347 37.935,28.796 51.517,18.87 65.099,8.944 64.055,-15.597 49.185,-35.944 34.316,-56.292 11.251,-64.74 -2.331,-54.814 -15.914,-44.888 -14.87,-20.347 0,0 Z" /></g><g
           transform="translate(2448.1484,1670.964)"
           id="g92"><path
             id="path94"
             style="fill:#ffffff;fill-opacity:1;fill-rule:nonzero;stroke:none"
             d="M 0,0 C -1.563,21.768 8.469,40.226 22.408,41.227 36.347,42.228 48.914,25.393 50.477,3.625 52.04,-18.143 42.008,-36.601 28.069,-37.602 14.13,-38.603 1.563,-21.768 0,0" /></g><g
           transform="translate(2448.1484,1670.964)"
           id="g96"><path
             id="path98"
             style="fill:none;stroke:#070707;stroke-width:8;stroke-linecap:butt;stroke-linejoin:miter;stroke-miterlimit:10;stroke-dasharray:none;stroke-opacity:1"
             d="M 0,0 C -1.563,21.768 8.469,40.226 22.408,41.227 36.347,42.228 48.914,25.393 50.477,3.625 52.04,-18.143 42.008,-36.601 28.069,-37.602 14.13,-38.603 1.563,-21.768 0,0 Z" /></g><g
           transform="translate(1856.8544,1041.5027)"
           id="g100"><path
             id="path102"
             style="fill:#11100d;fill-opacity:1;fill-rule:nonzero;stroke:none"
             d="m 0,0 c 0.126,-1.106 0.491,-2.103 1.093,-2.994 0.603,-0.892 1.399,-1.652 2.392,-2.28 0.991,-0.628 2.154,-1.111 3.485,-1.45 1.332,-0.34 2.801,-0.51 4.407,-0.51 1.482,0 2.838,0.17 4.07,0.51 1.23,0.339 2.291,0.816 3.182,1.431 0.892,0.615 1.589,1.351 2.092,2.205 0.502,0.854 0.754,1.794 0.754,2.825 0,0.854 -0.177,1.632 -0.529,2.336 -0.351,0.703 -0.904,1.331 -1.657,1.882 -0.754,0.553 -1.726,1.05 -2.921,1.49 -1.192,0.438 -2.618,0.833 -4.275,1.187 L 5.01,8.138 c -9.846,2.06 -14.768,7.234 -14.768,15.52 0,2.562 0.497,4.885 1.49,6.971 0.991,2.083 2.39,3.874 4.2,5.367 1.807,1.496 3.993,2.645 6.554,3.448 2.562,0.803 5.413,1.205 8.552,1.205 2.989,0 5.739,-0.402 8.251,-1.205 2.511,-0.803 4.683,-1.928 6.517,-3.372 1.834,-1.445 3.278,-3.171 4.334,-5.18 1.053,-2.009 1.619,-4.219 1.694,-6.63 h -10.7 c -0.126,1.08 -0.464,2.06 -1.017,2.938 -0.551,0.878 -1.262,1.632 -2.127,2.261 -0.867,0.628 -1.885,1.111 -3.053,1.45 -1.168,0.338 -2.443,0.509 -3.823,0.509 -1.432,0 -2.726,-0.158 -3.881,-0.472 C 6.079,30.634 5.086,30.183 4.258,29.592 3.429,29.002 2.787,28.287 2.336,27.444 1.885,26.604 1.659,25.667 1.659,24.638 c 0,-1.683 0.696,-3.039 2.089,-4.068 1.394,-1.031 3.687,-1.884 6.877,-2.562 l 6.554,-1.393 c 2.737,-0.579 5.091,-1.313 7.064,-2.204 1.971,-0.892 3.591,-1.966 4.86,-3.222 1.268,-1.257 2.204,-2.712 2.806,-4.369 0.602,-1.659 0.905,-3.542 0.905,-5.652 0,-2.739 -0.51,-5.199 -1.525,-7.384 -1.018,-2.185 -2.481,-4.038 -4.39,-5.556 -1.909,-1.52 -4.219,-2.687 -6.933,-3.504 -2.712,-0.816 -5.776,-1.224 -9.191,-1.224 -3.241,0 -6.178,0.384 -8.815,1.149 -2.637,0.765 -4.898,1.864 -6.782,3.295 -1.883,1.433 -3.36,3.165 -4.426,5.201 -1.068,2.033 -1.651,4.318 -1.753,6.855 z" /></g><g
           transform="translate(1919.7646,1046.325)"
           id="g104"><path
             id="path106"
             style="fill:#11100d;fill-opacity:1;fill-rule:nonzero;stroke:none"
             d="m 0,0 c 0,-1.708 0.25,-3.252 0.752,-4.634 0.503,-1.381 1.238,-2.562 2.205,-3.542 0.966,-0.978 2.159,-1.732 3.579,-2.259 1.418,-0.528 3.032,-0.791 4.841,-0.791 1.832,0 3.459,0.263 4.879,0.791 1.418,0.527 2.61,1.281 3.579,2.259 0.967,0.98 1.7,2.161 2.202,3.542 0.502,1.382 0.754,2.926 0.754,4.634 V 34.433 H 34.168 V -1.168 c 0,-3.013 -0.534,-5.757 -1.6,-8.23 -1.068,-2.475 -2.594,-4.597 -4.578,-6.369 -1.984,-1.769 -4.377,-3.139 -7.177,-4.105 -2.801,-0.967 -5.945,-1.45 -9.436,-1.45 -3.466,0 -6.605,0.483 -9.419,1.45 -2.814,0.966 -5.204,2.336 -7.177,4.105 -1.971,1.772 -3.491,3.894 -4.557,6.369 -1.069,2.473 -1.603,5.217 -1.603,8.23 V 34.433 H 0 Z" /></g><g
           transform="translate(1986.4423,1052.5033)"
           id="g108"><path
             id="path110"
             style="fill:#11100d;fill-opacity:1;fill-rule:nonzero;stroke:none"
             d="m 0,0 h 8.249 c 3.29,0 5.833,0.803 7.629,2.411 1.796,1.606 2.695,3.942 2.695,7.008 0,3.113 -0.894,5.475 -2.677,7.081 -1.783,1.608 -4.32,2.411 -7.609,2.411 H 0 Z m 11.302,28.255 c 2.787,0 5.335,-0.451 7.647,-1.356 2.31,-0.905 4.294,-2.172 5.953,-3.805 1.657,-1.632 2.943,-3.611 3.861,-5.934 0.916,-2.322 1.375,-4.892 1.375,-7.703 0,-2.79 -0.472,-5.332 -1.413,-7.629 C 27.783,-0.47 26.451,-2.443 24.73,-4.087 23.011,-5.733 20.963,-7 18.592,-7.892 16.218,-8.783 13.6,-9.229 10.736,-9.229 H 0 v -16.878 h -11.379 v 54.362 z" /></g><g
           transform="translate(2070.9365,1026.3961)"
           id="g112"><path
             id="path114"
             style="fill:#11100d;fill-opacity:1;fill-rule:nonzero;stroke:none"
             d="M 0,0 H -36.015 V 54.362 H 0 v -9.72 H -24.636 V 31.947 H -1.394 V 22.944 H -24.636 V 9.72 L 0,9.72 Z" /></g><g
           transform="translate(2102.165,1054.8392)"
           id="g116"><path
             id="path118"
             style="fill:#11100d;fill-opacity:1;fill-rule:nonzero;stroke:none"
             d="m 0,0 h 9.983 c 2.887,0 5.124,0.728 6.705,2.186 1.582,1.455 2.374,3.503 2.374,6.14 0,1.281 -0.215,2.442 -0.642,3.485 -0.426,1.04 -1.034,1.926 -1.826,2.656 -0.792,0.728 -1.758,1.287 -2.9,1.676 -1.143,0.389 -2.419,0.583 -3.825,0.583 H 0 Z m 0,-28.443 h -11.379 v 54.362 h 22.831 c 2.989,0 5.674,-0.402 8.061,-1.205 2.387,-0.805 4.409,-1.96 6.066,-3.467 1.659,-1.506 2.932,-3.334 3.823,-5.48 0.892,-2.148 1.338,-4.578 1.338,-7.29 C 30.74,6.743 30.52,5.08 30.081,3.485 29.641,1.89 29.002,0.419 28.159,-0.923 27.319,-2.266 26.282,-3.453 25.052,-4.484 23.82,-5.513 22.427,-6.342 20.869,-6.97 L 32.323,-28.443 H 19.438 L 9.304,-8.74 H 0 Z" /></g><g
           transform="translate(2163.6067,1052.5033)"
           id="g120"><path
             id="path122"
             style="fill:#11100d;fill-opacity:1;fill-rule:nonzero;stroke:none"
             d="m 0,0 h 8.249 c 3.29,0 5.832,0.803 7.628,2.411 1.797,1.606 2.696,3.942 2.696,7.008 0,3.113 -0.894,5.475 -2.677,7.081 -1.783,1.608 -4.32,2.411 -7.609,2.411 H 0 Z m 11.302,28.255 c 2.787,0 5.335,-0.451 7.647,-1.356 2.31,-0.905 4.294,-2.172 5.953,-3.805 1.657,-1.632 2.943,-3.611 3.861,-5.934 0.916,-2.322 1.375,-4.892 1.375,-7.703 0,-2.79 -0.472,-5.332 -1.413,-7.629 C 27.783,-0.47 26.451,-2.443 24.73,-4.087 23.011,-5.733 20.963,-7 18.592,-7.892 16.218,-8.783 13.6,-9.229 10.736,-9.229 H 0 v -16.878 h -11.379 v 54.362 z" /></g><g
           transform="translate(2223.4646,1054.8392)"
           id="g124"><path
             id="path126"
             style="fill:#11100d;fill-opacity:1;fill-rule:nonzero;stroke:none"
             d="m 0,0 h 9.983 c 2.887,0 5.123,0.728 6.705,2.186 1.582,1.455 2.374,3.503 2.374,6.14 0,1.281 -0.215,2.442 -0.642,3.485 -0.427,1.04 -1.034,1.926 -1.826,2.656 -0.792,0.728 -1.759,1.287 -2.9,1.676 -1.144,0.389 -2.419,0.583 -3.826,0.583 H 0 Z m 0,-28.443 h -11.379 v 54.362 h 22.831 c 2.989,0 5.674,-0.402 8.061,-1.205 2.387,-0.805 4.409,-1.96 6.066,-3.467 1.659,-1.506 2.932,-3.334 3.823,-5.48 0.892,-2.148 1.338,-4.578 1.338,-7.29 C 30.74,6.743 30.52,5.08 30.081,3.485 29.641,1.89 29.002,0.419 28.159,-0.923 27.318,-2.266 26.282,-3.453 25.052,-4.484 23.82,-5.513 22.427,-6.342 20.869,-6.97 L 32.323,-28.443 H 19.438 L 9.304,-8.74 H 0 Z" /></g><g
           transform="translate(2309.5425,1026.3961)"
           id="g128"><path
             id="path130"
             style="fill:#11100d;fill-opacity:1;fill-rule:nonzero;stroke:none"
             d="M 0,0 H -36.015 V 54.362 H 0 v -9.72 H -24.636 V 31.947 H -1.394 V 22.944 H -24.636 V 9.72 L 0,9.72 Z" /></g><g
           transform="translate(2329.3923,1026.3961)"
           id="g132"><path
             id="path134"
             style="fill:#11100d;fill-opacity:1;fill-rule:nonzero;stroke:none"
             d="M 0,0 V 54.362 H 13.412 L 28.443,17.819 h 0.679 L 44.191,54.362 H 57.565 V 0 H 47.016 V 36.354 H 46.414 L 32.588,3.128 H 25.016 L 11.151,36.354 H 10.549 L 10.549,0 Z" /></g><path
           id="path136"
           style="fill:#11100d;fill-opacity:1;fill-rule:nonzero;stroke:none"
           d="m 2408.011,1080.758 h 11.379 v -54.362 h -11.379 z" /><g
           transform="translate(2451.9348,1046.325)"
           id="g138"><path
             id="path140"
             style="fill:#11100d;fill-opacity:1;fill-rule:nonzero;stroke:none"
             d="m 0,0 c 0,-1.708 0.25,-3.252 0.752,-4.634 0.502,-1.381 1.238,-2.562 2.205,-3.542 0.966,-0.978 2.159,-1.732 3.579,-2.259 1.418,-0.528 3.032,-0.791 4.841,-0.791 1.832,0 3.459,0.263 4.879,0.791 1.418,0.527 2.61,1.281 3.579,2.259 0.967,0.98 1.7,2.161 2.202,3.542 0.502,1.382 0.754,2.926 0.754,4.634 V 34.433 H 34.168 V -1.168 c 0,-3.013 -0.534,-5.757 -1.6,-8.23 -1.069,-2.475 -2.594,-4.597 -4.578,-6.369 -1.984,-1.769 -4.377,-3.139 -7.177,-4.105 -2.801,-0.967 -5.945,-1.45 -9.436,-1.45 -3.466,0 -6.606,0.483 -9.419,1.45 -2.814,0.966 -5.204,2.336 -7.177,4.105 -1.971,1.772 -3.491,3.894 -4.557,6.369 -1.069,2.473 -1.603,5.217 -1.603,8.23 V 34.433 H 0 Z" /></g><g
           transform="translate(2507.2336,1026.3961)"
           id="g142"><path
             id="path144"
             style="fill:#11100d;fill-opacity:1;fill-rule:nonzero;stroke:none"
             d="M 0,0 V 54.362 H 13.412 L 28.443,17.819 h 0.679 L 44.191,54.362 H 57.565 V 0 H 47.016 V 36.354 H 46.414 L 32.588,3.128 H 25.016 L 11.151,36.354 H 10.549 L 10.549,0 Z" /></g></g></g></g></svg>